<svg width="148" height="148" viewBox="0 0 148 148" fill="none" xmlns="http://www.w3.org/2000/svg">
<g clip-path="url(#clip0_112_15)">
<g filter="url(#filter0_d_112_15)">
<path fill-rule="evenodd" clip-rule="evenodd" d="M85.0015 19.0386C85.0015 19.7998 88.0463 21.2461 90.7867 21.779C92.8895 22.1447 94.9537 22.7054 96.9526 23.4536C98.475 23.8342 99.3885 24.2148 100.226 24.8238C100.759 25.2805 100.759 25.2805 101.824 25.3567C103.423 25.585 105.554 26.2701 105.859 26.6507L107.838 28.4015L107.686 28.5538C107.229 29.0866 107.153 30.3046 107.61 30.3807L109.817 30.7613C111.796 30.8374 114.004 31.7509 115.222 32.9688C115.705 33.4295 116.139 33.9398 116.516 34.4913L116.744 34.948L116.896 35.2525L117.049 35.557L117.277 36.1659L117.505 36.6988L117.658 37.46C117.84 38.211 117.967 38.9742 118.038 39.7437L118.114 41.7228C118.022 44.6685 117.43 47.5771 116.364 50.3246C115.553 52.44 114.506 54.4573 113.243 56.3382C112.938 56.7949 112.101 57.48 111.72 57.48C111.34 57.4039 111.416 57.0233 112.405 55.5008C112.811 54.8693 113.167 54.2076 113.471 53.5217C113.714 52.8967 113.993 52.2867 114.308 51.6948L114.613 51.0858L115.222 49.4872L115.45 48.9544C116.748 45.65 116.908 42.0077 115.907 38.6018C115.698 37.7496 115.274 36.9655 114.674 36.3255C114.073 35.6854 113.318 35.211 112.481 34.948C111.568 34.5674 109.284 34.2629 109.208 34.4913C109.132 34.5674 110.883 36.2421 111.111 36.2421C111.34 36.2421 112.253 37.3078 112.634 38.069C113.014 38.7541 113.319 39.8959 113.243 40.4288C113.166 40.9616 112.71 42.0273 112.481 42.3318L112.405 42.7124L112.025 43.3975C111.568 44.2348 111.568 44.3871 111.492 46.7468C111.576 47.8937 111.499 49.0467 111.263 50.1723L111.187 50.5529L110.959 51.5425L110.807 52.3798L110.426 53.3694L109.817 54.6635L109.437 55.3486L109.132 55.9576L108.98 56.2621L108.828 56.4904L108.523 57.0233L108.295 57.48L108.142 57.7845L107.99 58.1651L107.762 58.4696L107.61 58.6979L107.457 59.0786L107.229 59.383L107.077 59.6114L106.848 59.9159L106.696 60.0681L106.239 60.6771C105.878 61.2411 105.413 61.7317 104.869 62.1234C104.869 62.2757 104.184 63.1891 104.032 63.2652C103.045 64.0738 102.104 64.938 101.215 65.8534L100.683 66.3101L99.9974 66.843L99.6168 67.1474L99.1601 67.5281L98.7034 67.9087L98.1705 68.2893L97.3332 68.9744C96.9526 69.2788 96.1152 69.8878 95.963 69.8878L95.7346 70.1162L95.5063 70.2684L94.4406 71.0296L93.6793 71.4864L93.2226 71.7909L92.6136 72.1715L91.6241 72.7804L91.3196 72.9327L91.0912 73.0849L90.7867 73.2372L90.4822 73.3894L89.7971 73.77L89.1882 74.0745L88.8837 74.2268L88.7314 74.3029L88.5031 74.4551L87.8941 74.7596L87.3612 75.0641L86.9045 75.2163L85.6104 75.9014L85.0776 76.2059L84.5447 76.4343L84.1641 76.5865L83.8596 76.7388L83.479 76.8149C81.8805 77.6522 81.9566 77.5761 82.0327 77.8806C82.185 78.5657 82.4133 78.8702 82.7939 78.6418L83.479 78.4134L84.0119 78.1851L84.7731 77.8045L85.1537 77.6522L85.4582 77.5761L86.1433 77.2716L87.209 76.891L87.9702 76.5865L88.3508 76.4343L88.8076 76.2059L89.721 75.9014L91.0912 75.2925L91.3957 75.2163L91.6241 75.0641L92.0808 74.8357L92.842 74.4551L93.3749 74.2268L93.6032 74.1506L93.9077 73.9223L94.745 73.3894C95.2132 73.0633 95.6958 72.7585 96.1914 72.476L96.4958 72.2476L96.7242 72.0953L97.5615 71.4864C98.4306 70.9575 99.2464 70.3456 99.9974 69.6595C100.747 69.1266 101.436 68.514 102.053 67.8325L102.814 67.1474C103.499 66.4567 104.237 65.8204 105.021 65.2444L105.478 64.8638C106.514 63.9402 107.58 63.0517 108.675 62.1995C109.618 61.4491 110.508 60.6352 111.34 59.7636C112.842 58.2165 114.289 56.6169 115.678 54.968C116.137 54.2415 116.619 53.5306 117.125 52.8366L117.734 51.7709C118.235 50.9561 118.643 50.088 118.952 49.1827L119.028 48.9544L119.104 48.5738C119.212 47.961 119.339 47.3517 119.485 46.7468C119.588 45.3768 119.69 44.0066 119.789 42.6363C119.918 40.1202 119.816 37.5977 119.485 35.1002C119.661 33.3066 119.372 31.4978 118.647 29.8478L118.495 29.315C118 28.5703 117.493 27.8344 116.973 27.1075C116.668 26.4985 114.537 24.3671 113.699 23.7581C112.177 22.7685 111.492 22.5402 110.198 22.5402C109.208 22.464 108.904 22.3879 107.762 21.9312C107.001 21.5506 106.696 21.4745 106.392 21.3983C105.547 21.2573 104.709 21.0795 103.88 20.8655L102.814 20.7133L101.824 20.6371H100.53C99.1373 20.5199 97.7411 20.4437 96.3436 20.4088L95.354 20.3326C94.6689 20.2565 94.1361 20.1804 92.5375 19.7237C91.4718 19.4953 90.2539 19.3431 88.8076 19.3431C87.8643 19.3389 86.9227 19.2625 85.9911 19.1147L85.1537 19.0386H85.0015ZM126.868 19.4953L126.64 19.5714H126.183L125.498 19.6475C124.537 19.7734 123.593 20.0031 122.682 20.3326L121.54 20.9416L121.159 21.17L119.941 22.464L119.789 22.6924C119.713 22.9208 119.485 23.5298 119.485 23.9865C119.461 24.4179 119.435 24.8493 119.408 25.2805L119.561 26.0418L119.865 27.1836L120.931 29.1628C121.083 29.3911 121.54 30.2285 121.464 30.3046L121.616 30.5329L121.692 30.8374L121.844 31.1419C122.149 31.9793 122.301 33.1211 122.149 34.4151C121.968 35.5784 121.816 36.746 121.692 37.9167C121.516 38.7459 121.389 39.5847 121.311 40.4288L121.007 41.8751L120.855 43.3975C120.835 44.2111 120.784 45.0237 120.703 45.8334C120.855 45.9856 121.159 45.5289 121.083 45.3005C121.083 45.1483 121.083 45.0722 121.235 44.996L121.388 44.6154L121.464 44.3871L121.692 44.0826L121.768 43.702L121.844 43.3975L121.92 43.093L122.073 42.8646L122.149 42.5602L122.301 42.2557L122.606 40.9616L122.758 40.5049C122.902 39.6044 123.106 38.7144 123.367 37.8406C123.475 36.8648 123.653 35.8981 123.9 34.948L124.052 34.2629L124.128 33.8062L124.204 33.1211C124.28 32.5882 124.052 31.2942 123.824 30.8374L122.91 29.3911C122.529 28.9344 122.225 28.4015 122.225 28.0209C122.225 27.4881 123.519 26.803 123.824 27.2597C124.585 28.3254 127.021 28.3254 127.477 27.2597C128.086 25.8134 124.965 24.9761 123.747 26.194C123.519 26.4224 123.062 26.4985 122.758 26.3463C122.529 26.3463 122.225 25.585 122.225 25.4328V24.9761C122.149 24.6716 122.453 23.8342 122.834 23.4536L122.91 23.2253C122.91 23.073 123.747 22.3118 123.976 22.1596C124.592 21.8693 125.201 21.5647 125.803 21.2461L126.183 21.17C126.412 20.9416 127.477 20.8655 128.391 20.8655L129.38 20.7894C129.457 20.4088 128.162 19.5714 127.553 19.4953L127.097 19.4192L126.868 19.4953ZM58.1305 19.7237C55.4935 19.8283 52.8703 20.1593 50.29 20.7133C48.9959 20.9416 45.1137 20.8655 38.1105 20.4849C29.4327 20.0282 26.1594 19.952 26.0833 20.0282L26.0072 21.3983C26.0833 23.4536 26.2356 23.682 28.1386 24.5955C34.0761 27.5642 36.2075 29.924 37.4254 34.7196C38.1867 37.5361 38.1867 37.0033 38.1867 73.8461C38.1867 111.983 38.1867 109.471 37.0448 113.125C35.6747 117.235 32.7059 119.291 25.5505 121.118C23.2668 121.651 23.2668 121.727 23.2668 123.782V125.152H67.8741L67.798 123.934C67.798 121.574 68.0263 121.727 63.5352 120.585C52.7259 117.921 51.9647 116.018 51.9647 93.4855C51.8886 81.6867 51.9647 81.5344 53.4871 81.4583C55.6185 81.3061 59.1962 81.2299 62.4695 81.2299H66.0472L68.3308 84.7315C71.4518 89.4511 74.8773 94.7796 76.6281 97.6722C94.2883 125.685 99.6168 131.318 111.263 134.211C117.429 135.733 128.467 135.048 129.304 133.145C129.989 131.394 129.38 130.785 125.65 129.948C118.799 128.273 114.689 125.837 109.513 120.356C104.565 115.104 100.911 110.385 90.5584 95.5408C87.1427 90.6442 83.6918 85.7723 80.2058 80.9255C79.3685 79.7836 78.0744 77.6522 77.9222 77.1194C77.9222 76.891 78.5311 76.282 80.3581 74.7596C85.9911 70.1923 89.0359 66.9952 91.7763 62.9608C94.3644 59.0024 96.1914 54.4351 96.8003 50.4768C97.2571 47.5081 97.0287 39.2108 96.4197 37.3078C94.4406 30.8374 90.1777 25.9656 83.5552 22.6163C80.7387 21.2461 77.3893 20.1043 75.1057 19.7998C74.04 19.7237 60.4903 19.5714 58.1305 19.7237ZM20.1458 20.9416C19.004 21.5506 19.2324 23.3014 20.5264 23.7581C21.8966 24.2148 22.6579 23.1491 22.0489 21.779C21.7444 21.0177 20.6787 20.561 20.1458 20.9416ZM103.575 22.9969C104.217 23.2596 104.851 23.5388 105.478 23.8342C107.471 24.4204 109.407 25.1847 111.263 26.1179L112.938 27.4881L113.547 28.0209L114.156 28.5538L114.537 29.0105C115.974 30.2999 117.252 31.7565 118.343 33.3494C118.571 33.3494 118.495 31.9793 118.191 31.5986L118.038 31.2942C116.757 29.4542 115.159 27.8562 113.319 26.5746L112.786 26.1179L112.634 25.9656L112.405 25.8134C111.872 25.3567 109.817 24.3671 108.828 24.1387L106.772 23.5298C105.326 23.1491 103.575 22.8447 103.575 22.9969ZM53.1065 25.7373L52.4975 25.8895C51.8886 25.8895 51.508 66.9952 52.1169 71.3341C52.4975 74.1506 63.5352 75.8253 72.4414 74.379C75.4101 73.9223 80.7387 67.2236 82.5656 61.6667C86.8284 48.726 83.479 37.3078 73.6593 30.9897C67.3629 27.5288 60.2914 25.7216 53.1065 25.7373ZM23.2668 25.9656C22.0489 26.2701 21.0593 27.7164 21.6683 28.2493L21.7444 28.4777C21.7444 28.706 22.2772 29.4672 22.8862 30.0762C23.8758 31.0658 23.8758 31.1419 23.7236 32.5121C23.6474 32.8166 23.6474 33.045 23.8758 33.9584C24.0745 34.8891 24.227 35.8291 24.3325 36.7749C24.3356 38.1576 24.4887 39.5359 24.7893 40.8855C24.8304 41.4699 24.8812 42.0536 24.9415 42.6363L25.1699 46.7468C25.2504 47.8074 25.4547 48.8548 25.7788 49.8678C26.0156 50.465 26.2189 51.0749 26.3878 51.6948L26.6162 52.2276L26.7684 52.6843C27.0192 53.0916 27.2234 53.5256 27.3774 53.9784L27.6058 54.4351C27.758 54.6635 27.9102 54.968 28.4431 55.5008L28.7476 55.8814C28.8998 56.1098 29.0521 56.1859 29.1282 56.0337L29.0521 55.577L28.7476 54.8157C28.7476 54.6635 28.6715 54.4351 28.5192 54.2829C28.4431 54.2068 28.367 54.0545 28.4431 53.9784L28.2909 53.4456C27.3013 51.3903 26.7684 48.4976 27.149 47.5081L27.3774 46.4424C28.1559 44.1504 29.2859 41.9932 30.7267 40.0481L31.1835 39.2108C32.0969 37.3078 32.4014 35.7092 31.9447 34.7196C30.9551 32.5121 29.8133 31.3703 27.3013 29.924C25.0937 28.6299 24.1803 27.6403 24.1803 26.4224C24.1803 25.9656 23.8758 25.8134 23.2668 25.9656ZM97.6377 27.6403C96.9526 27.7926 96.0391 28.2493 96.4197 28.4015L96.572 28.5538L96.8003 28.6299C97.4093 28.6299 98.2466 29.5434 98.6272 30.4568L98.9317 31.1419L99.2362 31.9793L99.4646 32.436L99.6168 32.9688L100.15 34.7958C100.467 35.6383 100.722 36.5035 100.911 37.3839C101.139 38.2212 101.139 39.0586 100.987 39.8959L100.911 42.484V45.3005C100.716 47.5111 100.334 49.7011 99.7691 51.847C99.063 54.8929 98.3525 57.9377 97.6377 60.9816C97.4854 61.3622 97.4854 61.8189 97.7138 61.8189L97.866 61.6667C97.866 61.5144 98.1705 60.9816 98.3228 60.9055L98.5511 60.601C99.2387 59.1939 99.9493 57.7982 100.683 56.4143C103.347 50.2484 104.26 46.8991 104.184 43.5497C104.2 41.6084 104.021 39.6704 103.651 37.7645C103.88 37.3078 104.489 40.0481 104.717 42.3318C104.945 45.1483 104.641 47.3558 103.271 51.3903C102.759 53.1088 102.123 54.788 101.368 56.4143C101.215 56.9471 100.454 58.4696 99.6168 60.1443C98.3228 62.7324 98.3989 62.504 98.5511 62.8085C98.6272 63.1891 98.7795 63.1891 99.0079 62.8846L99.3885 62.2757C99.9859 61.4914 100.545 60.6784 101.063 59.8398L101.596 59.0024C102.814 57.48 104.565 53.9023 106.468 49.4111C107.457 47.1275 107.533 46.7468 107.533 45.3005C107.565 42.5568 107.128 39.8278 106.239 37.2316L105.935 36.2421L105.554 35.4047C105.046 34.4158 104.538 33.4262 104.032 32.436L103.651 31.827C103.499 31.4464 102.738 30.4568 102.053 29.7717C101.072 28.5992 99.6862 27.8384 98.1705 27.6403H97.6377ZM55.6946 30.8374C54.7812 31.0658 54.1722 32.6643 54.7812 33.2733C55.6946 34.1868 56.6842 33.8823 57.0648 32.436C57.2171 31.6748 56.9887 31.218 56.3797 30.8374H55.6946ZM66.6562 31.0658C66.58 31.218 65.7427 31.5986 65.3621 31.7509C65.2098 31.7509 64.6009 32.2837 64.6009 32.436L64.5248 32.5882C63.9919 33.1211 63.9919 34.7958 64.4486 35.4808L64.677 35.7853L64.9054 36.0898L65.0576 36.3943L65.286 36.7749C65.8188 37.5361 66.8084 39.5914 66.9606 40.2765C67.1129 40.581 67.189 40.581 67.2651 40.3526L67.798 39.2869C67.9502 38.9063 68.8637 37.9929 69.0159 37.9167C69.3204 37.8406 70.0055 37.3839 70.0816 37.1555C70.3861 36.3943 69.2443 33.8823 67.9502 32.3599L67.4935 31.5225C67.1129 30.9135 66.8084 30.7613 66.6562 31.0658ZM26.0833 31.1419L26.3117 31.3703C28.0625 33.1211 28.6715 35.4047 27.9864 37.46C27.7257 38.1597 27.4971 38.8709 27.3013 39.5914L26.9968 40.3526L26.8445 40.8855L26.7684 41.1138L26.5401 41.9512C26.3878 43.702 26.4639 44.996 26.7684 44.2348L26.9968 43.6259L27.3774 42.2557C27.467 41.7069 27.6203 41.1704 27.8341 40.6571L27.9102 40.2765L28.0625 39.972L28.1386 39.5914L28.2147 39.4392L28.2909 39.1347L28.4431 38.8302L28.5192 38.5257L28.6715 37.9929L28.9759 37.0033C29.2043 34.948 29.2043 34.5674 28.6715 33.6539C28.0625 32.436 26.0833 30.5329 26.0833 31.1419ZM28.2147 31.5225L28.6715 32.0554C30.4223 33.73 30.8029 35.6331 29.9655 37.7645C29.1632 39.7954 28.427 41.8517 27.758 43.9303L28.4431 42.8646L28.8237 42.0273L29.2043 41.2661L29.8133 39.8959C30.2075 39.1379 30.5385 38.3486 30.8029 37.5361C31.2596 35.7853 31.1835 34.6435 30.3461 33.3494C29.7372 32.436 28.2147 31.0658 28.2147 31.5225ZM59.044 32.7405C58.7395 32.9688 59.653 34.7196 60.1858 35.0241C60.7187 35.2525 60.7187 36.0137 60.1858 36.0137C59.8813 36.0137 59.8813 36.4704 60.3381 37.8406C60.7948 39.0586 61.4799 39.972 63.1546 41.7989C63.7657 42.4391 64.3257 43.1263 64.8292 43.8542C64.9054 43.7781 64.7531 42.7885 64.677 42.7124L64.4486 42.1034C64.1441 41.2661 63.6874 40.3526 63.2307 39.6675C62.5456 38.7541 62.6217 38.5257 63.3068 39.2108C64.1441 40.0481 64.8292 41.6467 65.5905 44.0826C66.2468 46.2856 66.6303 48.5609 66.7323 50.8574C66.8084 52.6082 66.8084 56.9471 66.6562 57.0233C66.5039 57.0233 66.4278 56.9471 66.3517 55.9576L66.0472 54.7396L65.7427 53.8262L65.3621 52.6082C65.1337 51.847 65.1337 51.6948 65.0576 50.7813C65.0387 48.0779 64.2463 45.4365 62.774 43.1691C62.774 42.9408 61.4038 41.3422 60.7948 40.9616C60.2619 40.5049 60.1858 40.581 60.1858 41.1138C60.2619 42.2557 60.1858 42.3318 59.653 41.7228C59.4246 41.3422 58.5873 40.8094 58.2828 40.8094L58.0544 40.7332L57.9022 40.6571L57.2932 40.8094L56.6842 40.9616L56.3036 41.1138L56.2275 41.19L55.9991 41.3422C55.6185 41.4945 54.7812 42.3318 54.4767 42.7885L54.2483 43.093L54.0961 43.3975L53.8677 43.702C53.3349 44.0826 53.5632 44.9199 54.0961 44.9199H54.7051L55.0857 45.1483L55.3902 45.4528L55.6185 45.7573L55.6946 45.9095L55.7708 46.0618C55.923 46.0618 56.1514 46.7468 56.3036 47.3558C56.3036 47.5842 55.923 47.8887 55.7708 47.7364C55.314 47.2797 55.4663 48.726 55.923 49.7917L56.1514 50.2484C56.1514 50.7052 58.8156 52.9127 59.3485 52.9127L59.5768 52.9888L60.1097 53.1411C60.4159 53.1381 60.7217 53.1636 61.0232 53.2172H61.556C62.6978 53.1411 62.9262 52.9888 62.2411 52.5321C61.7844 52.3037 61.556 52.1515 60.947 52.0754L60.4142 51.9231L59.9575 51.7709C59.3485 51.6186 58.2067 50.8574 58.2067 50.629C58.2067 50.4768 58.8156 50.5529 59.1201 50.7052C59.5007 50.9335 60.1858 51.1619 61.0993 51.3141C62.0127 51.4664 62.3172 51.6186 63.0784 52.3037C63.9919 53.0649 65.0576 54.8157 65.3621 56.2621L65.5905 57.2516L65.6666 59.383C65.6666 60.9055 65.6666 61.21 65.3621 62.3518C65.1615 63.0051 64.9837 63.6652 64.8292 64.3309L64.7531 64.6354C64.4486 65.2444 64.3725 65.3966 64.3725 65.625L64.1441 66.234L63.9158 66.6907L63.7635 67.0713L63.3829 68.0609L61.9366 71.7147C61.7083 72.0953 61.7083 72.0953 62.165 72.3998C62.5456 72.6282 63.459 72.6282 63.6874 72.3237C64.0979 71.6 64.4296 70.8344 64.677 70.0401L65.0576 69.2788L65.2098 68.8982L65.6666 67.5281C65.8601 66.8817 66.0888 66.2464 66.3517 65.625L66.5039 65.1683L66.7323 64.5593C67.0903 63.3663 67.5225 62.1968 68.0263 61.0577L68.407 60.0681L68.7114 59.3069C69.4463 57.8855 70.1821 56.4645 70.919 55.0441L71.5279 54.1306C72.2892 52.9127 72.9743 52.3798 74.5728 51.847L75.8669 51.3141C76.552 50.9335 76.6281 50.9335 76.6281 51.1619C76.6281 51.4664 75.8669 52.0754 75.1818 52.3798C74.5371 52.6624 73.9024 52.967 73.2787 53.2933C72.9743 53.4456 72.5175 53.9784 72.5936 53.9784H72.822L73.7355 53.8262L74.7251 53.6739L75.4101 53.5217L75.943 53.2933L76.3997 53.0649L76.6281 52.9127L77.3132 52.456L78.2266 51.6948L78.7595 51.0858C79.4446 50.3246 80.0536 49.335 80.2819 48.4976C80.4342 47.8887 80.2819 47.8887 79.3685 48.4215C78.6834 48.8783 78.6834 48.3454 79.3685 47.5842C79.8252 47.2036 80.4342 46.1379 80.4342 45.8334L80.6625 45.3767C81.4238 44.1587 81.4238 44.2348 79.8252 44.2348H78.9879C78.1304 44.1564 77.2717 44.3711 76.552 44.8438C75.943 45.3005 75.6385 44.996 76.0952 44.311C76.7042 43.0169 74.04 43.5497 72.5175 44.996C71.5502 45.9489 70.8878 47.1677 70.6145 48.4976L70.4622 49.1827L70.1578 51.0097C69.8214 53.5101 69.0485 55.9321 67.8741 58.1651C67.8741 58.3173 67.5696 58.6218 67.4935 58.6218C67.4174 58.6218 67.3413 58.5457 67.4174 58.3173C67.8666 56.3424 68.1215 54.3283 68.1786 52.3037C68.1886 50.6774 68.2647 49.0521 68.407 47.4319C68.6353 45.1483 69.4727 43.093 70.6906 42.1034C71.2996 41.7228 71.6041 41.8751 71.1473 42.4079C70.1578 43.5497 69.092 45.8334 69.5488 45.8334C70.7191 44.7722 71.8369 43.6544 72.8981 42.484C73.6593 41.7989 73.7355 41.7989 73.8877 41.4183C74.1161 40.8855 74.04 40.2765 73.6593 39.972C73.431 39.7437 73.5832 39.5914 73.8877 39.6675C74.2683 39.7437 74.4967 39.8959 75.0295 40.4288C76.1714 41.4945 76.3236 39.5914 75.1818 38.4496C73.1265 36.4704 69.0159 37.9929 67.8741 41.2661C67.4174 42.5602 67.4174 43.0169 67.5696 46.1379C67.5696 47.7364 67.5696 48.3454 67.3413 48.3454C67.189 48.3454 66.8845 45.4528 66.8084 43.4736C66.8084 41.2661 66.58 40.2004 65.7427 38.7541C64.9054 37.0033 65.0576 37.3078 63.3829 34.948C62.4695 33.73 60.947 32.6643 60.1097 32.8166H59.7291C59.1962 32.6643 59.044 32.6643 59.044 32.7405ZM67.0368 33.5778L66.9606 34.1107C67.0368 34.6435 67.189 34.6435 67.2651 34.0345C67.3413 33.4256 67.189 33.1211 67.0368 33.5778ZM34.2283 38.1451C33.3373 38.975 32.6362 39.9877 32.1731 41.1138C31.4367 42.3707 30.8248 43.6964 30.3461 45.0722L30.1939 45.605C30.0256 46.2925 29.848 46.9777 29.661 47.6603C29.4248 51.1193 29.9982 54.5858 31.3357 57.7845L31.5641 58.3935L31.7924 59.0024L32.0969 59.6114L32.4775 60.2965L32.782 60.8293L33.0865 61.2861C33.3149 61.7428 33.4671 61.4383 33.3149 60.8293L33.0865 59.6114C32.9343 59.4592 32.782 58.0128 32.782 56.871C32.782 56.3382 32.7059 55.9576 32.6298 55.8814C32.4775 55.7292 32.5537 53.9023 32.7059 53.2172C33.0104 51.6948 33.0865 50.4768 32.9343 50.0962L32.782 49.6395C32.782 49.0305 32.7059 48.4976 32.5537 48.3454C32.1731 47.5842 32.2492 46.4424 32.7059 45.605L33.2388 44.4632C33.7716 43.4736 33.8477 42.7124 33.7716 41.0377C33.6955 40.4288 33.7716 40.2765 33.9239 39.8959L34.0761 39.363C34.0761 39.2108 34.3806 38.4496 34.5328 38.2973C34.6851 38.069 34.5328 37.9167 34.2283 38.1451ZM128.162 39.363L128.01 39.4392L127.782 39.5153L127.477 39.5914C126.868 39.5914 125.803 40.2765 125.041 41.1138C124.509 41.5706 124.356 41.8751 123.747 42.7885L122.91 44.6916L122.529 45.4528L122.301 45.8334L122.225 46.0618C121.873 46.8749 121.466 47.6633 121.007 48.4215L120.626 49.2589L120.474 49.4872L120.246 49.7917C120.105 50.1019 119.953 50.4066 119.789 50.7052L119.561 51.0858L119.332 51.5425L119.18 51.847L118.876 52.3798L118.571 52.9127L118.191 53.5217L117.81 54.0545L117.582 54.4351L117.277 54.8919L116.973 55.3486L116.896 55.5008L116.668 55.8053C116.211 56.6427 115.831 57.0994 114.384 58.6218C113.243 59.8398 112.786 60.2965 112.938 60.3726C113.166 60.5249 113.395 60.4487 113.775 60.1443L114.613 59.5353C116.445 58.1248 118.039 56.4284 119.332 54.5113L119.789 53.9784C120.999 52.7515 122.191 51.5081 123.367 50.2484C124.432 48.8783 124.813 48.0409 124.965 46.8991C125.065 46.0615 125.167 45.2242 125.27 44.3871L125.498 43.7781L125.879 43.093L126.259 42.4079C126.564 41.8751 128.01 40.5049 128.619 40.2004C129.38 39.8198 129.304 39.2869 128.467 39.2869L128.162 39.363ZM106.696 45.3005L106.468 46.0618C106.176 47.5797 105.717 49.0604 105.098 50.4768L103.195 54.2068C102.586 55.3486 102.433 55.8053 102.586 55.8053C103.979 53.8728 105.129 51.7765 106.011 49.5633C106.392 48.5738 107.077 45.8334 107.001 45.3767C106.925 45.2244 106.772 45.1483 106.696 45.3005ZM59.044 45.9095C59.044 46.0618 59.2724 46.4424 59.5007 46.6707L60.0336 47.2797L60.5664 47.9648L61.7083 49.4872C62.4695 50.5529 62.8501 50.4007 62.2411 49.2589C61.7844 48.3454 61.556 48.0409 60.7948 47.2797C59.5007 45.9856 59.044 45.605 59.044 45.9095ZM19.3846 46.9752C17.8622 47.9648 17.4816 49.4872 18.1667 51.9231L18.6234 53.5217C18.4514 54.7519 18.6854 56.0048 19.2899 57.09C19.8943 58.1753 20.8362 59.0338 21.9728 59.5353C22.8101 59.9159 22.9623 60.0681 24.1042 61.4383C24.7021 62.2313 25.4214 62.9249 26.2356 63.4936L27.4535 64.1026L28.6715 64.5593L29.661 64.9399L30.1178 65.1683L30.5745 65.3205H30.8029C31.0312 65.5489 31.0312 65.2444 30.879 64.9399L30.4984 64.3309L29.5849 63.113L29.2043 62.4279L28.9759 62.1995L28.8237 62.0473C28.8237 61.8189 28.4431 61.21 28.1386 60.8293L27.8341 60.3726L27.2252 59.3069L26.9968 58.9263L26.7684 58.5457L26.4639 58.1651L26.3117 57.9367L25.9311 57.6322C25.219 56.9003 24.3972 56.2839 23.4952 55.8053C23.4191 55.7292 23.2668 55.577 23.1146 55.577C22.5817 55.3486 22.5056 54.968 22.9623 55.0441C23.2655 55.1495 23.57 55.251 23.8758 55.3486L24.2564 55.577C25.7027 56.3382 25.7788 56.4143 26.7684 57.48C27.6696 58.3536 28.4388 59.3537 29.0521 60.4487L29.4327 60.9816L29.8133 61.6667C30.2419 62.412 30.7254 63.1244 31.2596 63.7981L32.0969 64.8638L32.1731 65.0922C32.2492 65.2444 33.0104 65.8534 33.2388 65.9295C33.6194 66.0056 33.6194 65.3966 33.2388 64.7116L33.0104 64.1787L32.0208 62.5801C31.6922 62.1137 31.3873 61.631 31.1074 61.1338C30.4892 59.9441 29.7494 58.8217 28.8998 57.7845L28.6715 57.4039L28.2909 56.871C28.1386 56.5665 27.758 56.1859 27.5296 55.9576L27.149 55.5008C26.3854 54.6852 25.5441 53.9458 24.637 53.2933C24.2564 52.9888 23.8758 52.7605 23.6474 52.7605L23.1907 52.6082L22.2772 52.2276L21.9728 51.9992L21.516 51.6948C21.0593 51.4664 19.9936 50.3246 19.9936 50.0962L19.9175 49.8678C19.7652 49.7917 19.5369 48.8783 19.5369 48.726V48.1932L19.613 47.7364L19.9175 47.1275C20.222 46.7468 19.9175 46.5946 19.3846 46.9752ZM75.7146 48.0409C74.6489 48.2693 72.0608 50.9335 72.4414 51.3141C72.5175 51.3903 72.8981 51.1619 73.2787 50.7052L75.7146 48.4215C76.3997 48.0409 76.3236 47.8887 75.7146 48.0409ZM100.835 52.7605C100.173 54.0682 99.6617 55.4474 99.3123 56.871C99.1601 57.4039 99.1601 57.5561 99.3123 57.48C99.6168 57.3278 100.454 55.1963 100.835 53.75C101.139 52.456 101.139 52.456 100.835 52.7605ZM58.2828 55.7292C57.5977 55.8814 56.6081 56.5665 56.3036 57.0233C55.6185 57.7845 55.5424 58.0128 55.2379 58.6218C54.7812 59.6875 54.7051 59.8398 54.6289 60.5249C54.4254 61.4783 54.4254 62.464 54.6289 63.4175C54.7812 64.1026 55.5424 65.8534 56.1514 66.843C56.839 67.9411 57.5756 69.0079 58.3589 70.0401C58.6347 70.6382 58.9396 71.2225 59.2724 71.7909C59.2724 72.0192 59.5007 72.0953 59.9575 72.0953H60.4142C59.7811 70.2299 58.9384 68.4422 57.9022 66.7668C57.5216 66.0817 57.3693 65.625 57.141 64.7116C56.8365 63.6458 57.2171 61.6667 57.9022 60.9055C59.044 59.5353 61.0993 59.992 61.4799 61.6667C61.556 62.2757 62.8501 61.8951 62.8501 61.21L62.9262 60.9055C63.3829 59.8398 62.9262 57.7845 62.0127 56.871C60.6425 55.6531 59.7291 55.3486 58.2828 55.7292ZM74.1922 56.2621C72.2892 56.4904 70.9951 57.8606 70.6906 59.7636C70.6399 60.3637 70.7447 60.9667 70.9951 61.5144C70.9951 61.7428 72.0608 62.9608 72.1369 62.8085L72.2892 62.4279C72.6698 61.0577 74.4967 60.1443 75.4101 60.9055L75.6385 60.9816C75.7908 60.9816 76.3236 61.5906 76.3236 61.7428L76.3997 61.9712C76.8565 62.4279 76.6281 64.7116 76.0191 65.3205L75.7908 65.7011C75.3849 66.3481 74.7655 66.8328 74.04 67.0713L73.8877 67.1474L72.822 67.4519L71.9847 67.6042L71.7563 67.6803L70.9951 67.8325L70.8428 67.9087C69.9696 68.2664 69.1291 68.6994 68.3308 69.2027C67.798 69.5072 66.7323 70.649 65.9711 71.5625C65.0576 72.6282 66.2755 72.8566 67.5696 71.7909C68.3327 71.1899 69.1788 70.7027 70.0816 70.3446L70.6906 70.0401L70.919 69.9639L71.2235 69.8878L71.9086 69.5833C73.0699 69.177 74.2128 68.7198 75.334 68.2131C76.3997 67.6803 77.6938 66.4623 78.3028 65.2444C78.9117 64.1026 79.1401 61.5906 78.7595 60.2965C78.455 59.1547 78.3028 58.8502 77.9222 58.3173L77.6938 57.8606C77.3893 57.3278 76.0191 56.4904 75.334 56.2621H74.1922ZM121.692 58.3173C120.55 58.4696 119.865 59.3069 119.941 60.2204C120.017 61.21 120.474 62.1234 121.007 62.1234L121.311 62.2757C121.844 62.6563 123.291 62.2757 123.824 61.6667C125.041 60.1443 123.671 57.9367 121.692 58.3173ZM118.191 60.1443L117.81 60.2204L117.277 60.3726L116.592 60.6771C115.678 61.096 114.737 61.4521 113.775 61.7428L113.166 61.8951C110.933 62.7843 108.853 64.0171 107.001 65.5489C106.544 65.8534 105.707 66.6907 105.707 66.843L105.63 67.0713C105.098 67.4519 106.62 67.2236 107.229 66.7668L107.686 66.6146C107.838 66.6146 107.99 66.5385 108.599 66.0817L109.208 65.7773L109.817 65.4728L110.426 65.0922L110.883 64.8638L111.949 64.2548L113.547 63.3414C114.414 62.8569 115.333 62.4738 116.287 62.1995L117.734 61.6667C118.723 61.6667 119.865 60.601 119.408 60.1443H118.191ZM58.8156 60.9816C58.5873 61.1338 58.2067 61.8189 58.2067 62.1234C58.2067 63.113 59.2724 63.5697 59.9575 62.9608C60.947 62.0473 59.9575 60.2965 58.8156 60.9816ZM73.8877 61.5144C72.822 62.0473 73.2026 63.8742 74.4206 63.8742C75.1057 63.8742 75.4863 63.4936 75.4863 62.7324C75.4863 61.5906 74.8012 61.0577 73.8877 61.5144ZM29.8894 66.843L28.7476 66.9191C27.4535 66.9952 27.149 67.0713 26.3117 67.2997C24.9415 67.6803 22.5817 69.2788 22.5817 69.8117L22.3534 70.0401L22.2011 70.2684L21.9728 70.7252L21.7444 71.1058L21.2877 71.258C18.6995 71.7909 18.7756 75.5208 21.3638 75.4447C23.1146 75.3686 24.1803 72.7043 22.734 71.9431C22.5817 71.7909 22.8101 71.258 23.1146 71.258L23.6474 70.7252C24.1803 70.1923 24.5609 69.9639 25.0937 69.7356L25.7788 69.5072C26.9968 68.8982 29.2043 68.5176 30.4984 68.6699L31.8686 68.746L32.9343 68.8221C33.391 68.9744 33.6194 68.8982 33.5432 68.5176V67.9087C33.5432 67.4519 33.391 67.2236 33.0865 67.2236L32.1731 66.9952C30.879 66.7668 30.3461 66.7668 29.8894 66.843ZM110.35 67.6042L109.513 67.6803L108.523 67.8325H108.295L107.381 68.0609L106.696 68.2131L106.087 68.4415L105.326 68.5938L104.032 69.0505L103.804 69.1266C102.815 69.6399 101.916 70.3081 101.139 71.1058C100.538 71.7479 99.9294 72.3823 99.3123 73.0088C98.8556 73.6939 98.1705 74.3029 97.6377 74.7596L96.8003 75.3686L96.2675 75.9014L96.0391 76.0537L95.8107 76.1298C95.7346 76.1298 95.5824 76.2059 95.5063 76.5865C95.4301 76.6626 95.7346 76.6626 96.6481 76.6626C97.2571 76.6626 98.0183 76.7388 98.2466 76.891C98.475 77.0433 99.2362 76.891 100.226 76.4343L100.683 76.282C100.835 76.282 101.368 76.0537 101.748 75.7492C101.9 75.5969 102.205 75.4447 102.433 75.4447L103.042 75.1402L103.347 74.988L103.804 74.8357L104.26 74.6074L104.793 74.379L105.326 74.1506L105.859 73.9984L106.392 73.8461L107.533 73.4655L108.219 73.2372L108.751 73.0849L109.284 72.9327C110.305 72.7316 111.321 72.5032 112.329 72.2476C112.862 71.9431 116.668 71.7909 116.973 72.0192C117.353 72.2476 116.973 72.5521 116.211 72.6282C115.162 72.6628 114.117 72.7902 113.09 73.0088C111.746 73.2966 110.423 73.6781 109.132 74.1506C107.484 74.5898 105.879 75.1758 104.336 75.9014C103.575 76.1298 103.956 76.5104 104.717 76.3582L105.478 76.282C107.291 76.1597 109.068 75.7218 110.731 74.988C111.897 74.6314 113.065 74.2761 114.232 73.9223L115.07 73.77C116.833 73.5688 118.619 73.7241 120.322 74.2268C120.779 74.3029 121.159 74.4551 121.388 74.6835L121.92 75.0641C122.225 75.2163 122.606 75.5969 122.834 75.9014L123.215 76.3582C123.671 76.891 123.9 77.4239 123.976 78.1851L124.052 78.5657L124.128 78.9463C124.128 79.8598 125.041 80.5448 125.194 79.7836L125.346 79.403L125.422 79.0224L125.498 78.5657C125.727 77.9567 125.27 75.7492 124.737 74.5312L124.585 74.1506L124.509 73.9223C124.356 73.8461 123.976 73.3133 123.976 73.1611C123.976 73.0088 122.377 71.4103 121.844 71.0296C120.722 70.1821 119.459 69.538 118.114 69.1266L117.658 68.8982L117.277 68.8221L116.896 68.6699L116.211 68.4415C115.32 68.2825 114.431 68.1048 113.547 67.9087C112.495 67.6936 111.423 67.5915 110.35 67.6042ZM107.533 70.5729L106.316 70.8774C103.698 71.8696 101.332 73.4294 99.3885 75.4447C99.6168 75.5969 99.6168 75.5969 100.759 74.9118L101.292 74.6835L101.9 74.3029L102.433 73.9984L102.662 73.8461L103.195 73.5417L103.956 73.0849L104.336 72.8566L104.793 72.6282L105.25 72.3998L105.402 72.1715L105.63 72.0953L106.848 71.5625L108.295 70.8774C108.523 70.8774 108.98 70.649 108.98 70.5729C108.98 70.2684 108.523 70.2684 107.533 70.5729ZM33.0865 73.1611L32.5537 73.3894L32.2492 73.5417L30.7267 75.0641C30.7267 75.3686 29.5088 76.282 28.8998 76.4343C28.3243 76.5866 27.7823 76.8447 27.3013 77.1955C27.0729 77.1955 25.3982 78.9463 25.3982 79.1747L25.1699 79.4791L24.9415 79.7836L24.7893 80.0881L24.4848 80.6971L24.1803 81.3822L23.7997 82.524C23.7997 82.9046 22.4295 84.4271 22.0489 84.4271L21.2877 85.1121L20.7548 85.7972C20.4503 86.254 20.2981 86.4062 20.2981 86.6346L20.1458 87.4719C19.9227 88.3436 19.7951 89.2369 19.7652 90.1362C19.613 90.669 19.9175 96.6065 20.1458 97.1394C20.222 97.3677 20.4503 97.0632 20.5264 96.3781C20.9307 94.1356 21.5685 91.9415 22.4295 89.8317L22.5817 89.5272L22.9623 88.6899L23.2668 87.9286L23.4191 87.7764L23.7236 87.2436C23.8673 86.9443 24.0462 86.6632 24.2564 86.4062C25.41 84.493 26.7623 82.707 28.2909 81.0777C28.9759 80.1642 29.7372 79.7075 29.661 80.3165L29.4327 80.7732C28.8097 81.4029 28.2489 82.0912 27.758 82.8285C27.3352 83.3299 26.9534 83.8645 26.6162 84.4271C26.2795 84.9145 25.9743 85.423 25.7027 85.9495L25.3982 86.4062L25.1699 86.7107L24.4848 87.7764L24.3325 88.0048L23.3429 90.0601L22.9623 90.9735L22.8101 91.3541L22.6579 91.6586L22.5056 92.1153L22.2772 92.8004L22.0489 93.4094L21.8205 94.3229L21.7444 94.7035C21.0116 97.2745 20.7283 99.9527 20.9071 102.62C20.9108 104.245 20.8601 105.87 20.7548 107.492C20.5584 108.321 20.304 109.135 19.9936 109.928C19.6634 110.787 19.4336 111.681 19.3085 112.592C19.1563 112.744 19.3085 114.343 19.4607 114.419V114.495C19.4607 114.647 20.222 115.637 20.6026 115.865L22.0489 117.312C22.0489 117.616 21.1354 117.921 19.9936 117.921H18.1667C16.7204 117.921 16.5681 117.997 16.492 118.682L16.4159 119.291C16.3398 119.443 16.2636 119.443 17.7099 119.443C19.3149 119.536 20.9253 119.434 22.5056 119.139C23.2374 119.009 23.9737 118.908 24.7131 118.834L25.3982 118.758C26.3878 118.606 26.1594 117.768 24.8654 117.159L24.1803 116.703L23.7236 116.322L23.5713 116.246L23.1907 115.865L22.5056 115.332L22.125 114.8C21.3638 114.038 21.0593 112.364 21.4399 111.298L21.5921 110.765C21.5921 110.385 21.7444 110.08 21.9728 109.852L22.125 109.395L22.3534 109.09L22.6579 108.558C22.734 108.253 22.8862 108.101 22.9623 108.025L23.0385 107.873C23.0385 107.72 23.5713 106.883 23.7997 106.578L23.9519 106.426C24.749 105.542 25.6426 104.751 26.6162 104.066C26.9968 103.686 27.5296 103.457 28.1386 103.229L29.8894 102.848C30.6506 102.696 31.7163 102.848 32.4014 103.153L33.0104 103.381C33.1626 103.381 34.0761 103.99 34.3806 104.295C34.6851 104.599 34.6851 104.599 34.6851 103.914L34.7612 103.229C35.1418 102.544 33.0865 101.402 31.4118 101.25C29.5291 101.254 27.7037 101.898 26.2356 103.077C25.2375 103.934 24.3433 104.904 23.5713 105.969C23.5713 106.198 23.0385 106.655 22.8101 106.655L22.6579 106.578L22.9623 105.969L23.1907 105.513L23.4952 104.904L23.6474 104.599L23.9519 104.219L24.4848 103.457C24.7131 103.077 26.0833 101.707 26.3878 101.554L26.9968 101.174C27.2252 101.022 27.6058 100.945 27.758 100.945L28.4431 100.717C29.7372 100.108 32.8582 100.184 34.0761 100.945C34.6089 101.326 34.6089 101.25 34.7612 100.565C34.9134 99.423 34.3806 99.0424 32.1731 98.8902C30.3461 98.7379 29.5849 98.8902 28.2147 99.423C26.0021 100.322 24.1719 101.964 23.0385 104.066L22.8101 104.599L22.4295 105.284C22.2772 105.437 22.125 105.284 22.125 105.056L22.0489 104.675C21.4555 100.739 22.1216 96.716 23.9519 93.181C24.2068 92.6286 24.5401 92.1158 24.9415 91.6586L25.1699 91.3541L25.5505 90.8213L26.3878 89.9078C26.6452 89.6538 26.8749 89.3731 27.0729 89.0705L27.4535 88.6899L28.2147 87.9286C29.137 86.9701 29.9302 85.8953 30.5745 84.7315L30.8029 84.3509C31.3357 83.3614 31.7924 83.0569 31.7924 83.742L31.1074 85.2644C30.8155 85.739 30.5363 86.2213 30.27 86.7107L30.1178 86.8629C28.6579 88.577 27.2116 90.3025 25.7788 92.0392L25.3982 92.6482L25.0937 93.1049C24.8818 93.5199 24.6532 93.9262 24.4087 94.3229L24.2564 94.7035L23.7236 95.8453L23.4952 96.3781C23.2668 96.8349 22.9623 98.0528 22.8101 98.814L22.734 99.3469C22.5056 99.8036 22.734 100.336 22.9623 100.032L23.1146 99.7275C23.1146 99.5753 23.5713 98.4334 23.7236 98.2812L23.8758 97.8245L24.1042 97.2155L25.246 94.8557C26.4943 92.5519 28.1441 90.4896 30.1178 88.766C31.3359 87.5637 32.2268 86.0702 32.7059 84.4271C33.2388 84.1226 33.6955 79.9359 33.391 77.8806L33.3149 76.891C33.3549 76.1545 33.4056 75.4185 33.4671 74.6835L33.8477 73.5417C34.0761 73.0849 33.9239 73.0088 33.0865 73.1611ZM115.146 76.6626C113.547 77.1955 113.09 79.0985 114.308 79.8598L114.765 80.2404L115.298 80.4687L115.602 80.5448C115.602 80.6971 116.44 80.621 116.668 80.4687L117.125 80.2404C117.353 80.1642 117.429 80.012 117.505 79.7075L117.734 79.2508L117.886 78.8702V78.5657C118.038 78.1851 117.81 77.5761 117.353 77.1955C116.973 76.7388 117.049 76.7388 115.678 76.5865C115.602 76.5104 115.298 76.5865 115.146 76.6626ZM92.3853 77.4239C90.8758 77.5216 89.3751 77.7251 87.8941 78.0328L87.5135 78.1851L85.7627 78.8702L84.697 79.3269C83.7074 79.5553 83.2507 80.012 83.6313 80.3165C83.8596 80.621 84.088 80.621 85.4582 80.2404L86.2955 80.0881L86.9045 79.8598L87.4374 79.7075L87.8941 79.6314L88.1986 79.5553L88.6553 79.403C91.3668 78.7793 94.19 78.8316 96.8765 79.5553L97.4854 79.7836L97.6377 79.8598C98.9219 80.3578 100.147 80.996 101.292 81.7628C101.444 81.7628 102.433 82.6001 102.738 83.0569L103.195 83.6658C103.651 84.1226 104.26 85.036 104.565 85.7211L104.869 86.3301C105.098 86.6346 105.326 87.2436 105.554 88.0809L106.011 89.0705L106.163 89.4511L106.316 89.9078L106.468 90.4407L106.696 90.8974L106.772 91.278L106.925 91.5064L107.001 91.7347L107.153 92.0392L107.229 92.4198L107.305 92.7243L107.381 93.181L107.533 93.6378L107.61 93.8661L107.686 94.3229L107.838 94.7796L108.066 95.5408L108.219 96.3781L108.295 96.911L108.599 98.814L108.675 99.6514C108.98 100.641 108.904 102.316 108.599 102.544C108.219 102.848 108.066 102.468 107.99 101.25C107.955 100.47 107.801 99.6999 107.533 98.9663V98.6618L107.381 98.3573V98.0528L107.229 97.5961C107.229 96.9871 107.077 96.5304 107.001 96.4543L106.925 95.9975L106.772 95.5408L106.62 94.5512C106.544 94.2467 106.392 93.7139 106.239 93.5616L106.163 93.1049L106.087 92.8004L106.011 92.4959L105.859 92.1153L105.554 91.2019L104.945 89.6794L104.793 89.2227L104.565 88.6137L104.184 87.8525L104.032 87.4719L103.804 87.0913C103.524 86.4176 103.166 85.7789 102.738 85.1883C102.738 85.036 102.433 84.6554 102.129 84.2748L101.596 83.5136L101.292 83.2852C99.9974 82.4479 99.9213 82.3718 99.4646 82.7524C98.7236 83.3381 98.1032 84.0619 97.6377 84.8838C97.3332 85.3405 96.7242 86.6346 96.8003 86.7868L96.7242 87.1674C96.0391 88.6137 96.1152 92.7243 96.8003 92.2676C97.5615 91.8109 98.0183 91.887 97.9422 92.5721C97.7313 93.5536 97.7574 94.5713 98.0183 95.5408C98.4081 96.6247 98.9461 97.6493 99.6168 98.5857C99.7691 98.8902 99.9974 98.7379 100.454 98.2812C100.606 98.0528 100.987 98.1289 101.063 98.3573C101.139 98.7379 101.672 99.7275 102.053 100.108L102.509 100.641L102.89 101.022L103.347 101.326L103.727 101.554L104.108 101.859L104.717 102.24L105.402 102.848L105.935 103.457L106.239 103.762C106.239 103.838 106.392 104.066 106.62 104.219L107.153 105.056L107.686 105.893L108.066 106.426L108.219 106.807L108.675 107.796L108.751 108.253L108.98 109.014C109.056 109.623 109.208 110.08 109.36 110.08C109.437 110.08 110.35 109.09 110.426 108.786L110.654 108.405L111.187 107.187L111.34 106.883C111.492 106.731 111.72 105.893 111.72 105.665L111.949 105.132L112.177 104.295L112.329 103.61L112.558 102.696C112.803 100.543 113.184 98.4072 113.699 96.302L113.852 95.4647L113.928 94.2467C114.004 92.6482 113.928 92.2676 113.699 91.5064C113.471 90.8213 114.004 90.669 114.841 91.0496C115.374 91.278 115.755 91.3541 115.602 91.1258L115.526 90.669C114.876 88.3496 113.929 86.1237 112.71 84.0464L112.329 83.5136L111.568 82.6763L111.263 82.3718L110.883 82.0673C110.883 81.915 110.045 81.1538 109.589 80.9255L109.056 80.621C108.599 80.2404 107.61 79.9359 106.544 79.7075H104.945L104.336 79.7836C103.88 79.8598 103.804 80.012 104.032 80.2404C104.184 80.3926 104.108 80.5448 103.88 80.3926L103.651 80.3165L103.347 80.1642L103.042 80.012L102.509 79.7075C100.728 78.6782 98.7629 78.0059 96.7242 77.7283L95.5824 77.5761L95.0495 77.5C94.6689 77.4239 93.451 77.3477 92.3853 77.4239ZM90.8628 79.9359L90.33 80.1642C89.9494 80.3165 89.5688 80.7732 89.4926 81.0016L89.4165 81.3822C89.2643 81.6106 89.4165 82.2956 89.5688 82.524L89.721 82.7524C89.721 82.9046 90.33 83.5136 90.4822 83.5136L90.7867 83.6658H91.3957L91.7002 83.5897C92.0047 83.5897 92.4614 83.4375 92.4614 83.2852L92.6136 82.9807C92.7659 82.9046 92.842 82.6001 92.842 82.4479L92.9942 81.9912C93.1465 81.915 93.1465 81.0016 92.9942 80.9255L92.7659 80.621C92.7659 80.4687 92.6136 80.3926 92.6136 80.3926L92.3091 80.2404C92.0808 80.0881 91.9285 80.012 91.3196 79.9359H90.8628ZM58.2067 83.2091L57.826 83.5897C57.6129 83.9905 57.4098 84.3966 57.2171 84.8077L56.9126 85.2644L56.3797 86.5585L55.9991 87.3197C55.6946 87.7003 55.5424 88.0809 55.5424 88.157L55.2379 88.766L54.7812 89.9078L54.4006 90.669C53.8677 91.278 53.9438 91.1258 53.9438 95.9214L54.02 98.2051L54.6289 96.9871L55.4663 95.3124C55.923 94.6274 57.141 93.2572 57.7499 92.8004C58.3929 92.3272 59.0814 91.9193 59.8052 91.5825C61.1062 91.023 62.5269 90.7995 63.9369 90.9325C65.3468 91.0655 66.7007 91.5508 67.8741 92.3437L68.407 92.6482L69.092 93.2572C70.0055 94.0184 71.3757 96.1498 71.3757 96.6826L71.4518 96.911C71.8324 97.2155 71.9847 99.4991 71.7563 100.489L71.6041 101.326C71.4518 101.859 71.1473 102.696 70.919 103.001C70.7667 103.229 69.5488 104.143 69.2443 104.371L67.7219 104.904L67.2651 105.056L66.58 105.132C66.0191 105.147 65.4597 105.198 64.9054 105.284C63.3235 105.378 61.7615 105.686 60.2619 106.198C59.407 106.479 58.5891 106.862 57.826 107.34C56.9126 107.796 55.1618 109.471 55.1618 109.852L55.314 110.385L55.5424 111.222C55.6946 111.755 55.6185 111.831 56.3797 111.07C57.3693 110.156 57.826 109.776 58.9679 109.243C59.4392 108.959 59.9533 108.753 60.4903 108.634L61.9366 108.177L62.3172 108.101L62.6217 108.025C63.5203 107.988 64.4129 107.86 65.286 107.644C67.0868 107.549 68.8605 107.163 70.5384 106.502L71.1473 106.122C71.974 105.492 72.6501 104.686 73.1265 103.762C73.3549 103.305 73.5071 102.925 73.5071 102.696L73.6593 102.011C73.8116 101.478 73.8877 99.9559 73.7355 99.8036L73.6593 99.0424C73.5846 97.9241 73.2733 96.8343 72.7459 95.8453C72.5175 94.9318 71.1473 93.0288 70.0816 92.1153C69.2939 91.4824 68.5073 90.8481 67.7219 90.2123L67.4935 90.1362L67.2651 89.9839L66.58 89.6794C64.5741 88.7768 62.3261 88.5627 60.1858 89.0705L59.653 89.1466C59.1654 89.3301 58.6512 89.433 58.1305 89.4511C57.826 89.5272 57.5216 89.0705 57.826 88.9182L57.9022 88.6899L57.9783 88.3093L58.2067 87.8525L58.5111 87.0913L58.7395 86.5585L58.9679 86.1779L59.1201 85.7972L59.3485 85.4166L59.5007 84.9599L59.653 84.7315L59.8813 84.3509L60.1858 83.742C60.4142 83.5136 60.4142 83.2091 60.2619 83.0569C59.9575 82.9046 58.5873 82.9807 58.2067 83.2091ZM62.3172 83.0569L62.0127 83.133C61.8605 83.133 61.556 83.4375 61.1754 84.0464C60.7218 84.9248 60.2394 85.7879 59.7291 86.6346L59.653 86.9391L59.5007 87.3197L58.9679 88.3854C59.1962 88.6137 60.7187 87.7764 60.7187 87.3958C61.3767 85.8895 62.2766 84.501 63.3829 83.2852C63.3829 83.133 62.5456 82.9046 62.3172 83.0569ZM119.18 83.3614L118.876 83.4375C118.723 83.4375 118.038 84.1226 118.038 84.1987L117.886 84.4271C116.364 85.7211 118.647 88.6137 120.474 87.7003C121.388 87.1674 121.616 86.7107 121.54 84.8838C121.54 83.8942 121.159 83.5136 120.094 83.2852C119.408 83.2091 119.408 83.2091 119.18 83.3614ZM31.5641 93.3333C30.7362 93.4344 29.9352 93.6928 29.2043 94.0945L28.8237 94.3229L28.5192 94.4751L28.2909 94.6274C26.975 95.4356 25.8566 96.528 25.0176 97.8245C24.6125 98.3777 24.3036 98.9953 24.1042 99.6514L23.8758 100.413L23.4952 101.25C23.1146 102.163 23.3429 102.316 24.028 101.478C24.9415 100.336 26.7684 98.814 27.2252 98.814L27.5296 98.6618C28.367 98.2812 28.8998 98.1289 30.3461 97.9767C31.6628 97.8195 32.9948 97.8452 34.3045 98.0528C34.7612 98.2812 34.8373 97.8245 34.6851 94.5512V93.8661C34.6851 93.3333 32.9343 93.1049 31.5641 93.3333ZM119.332 93.4855C118.038 93.6378 117.962 94.0184 119.256 94.8557C119.637 95.1602 120.322 95.8453 120.322 95.9975L120.474 96.2259L120.703 96.911C120.743 97.174 120.82 97.4302 120.931 97.6722L121.159 98.4334L121.235 98.7379L121.388 99.2708L121.464 100.184C121.54 101.25 121.388 103.001 121.235 103.457L120.703 103.99C120.55 104.143 120.246 104.447 120.246 104.599L119.941 105.208C119.637 105.589 119.408 106.274 119.408 106.883C119.318 108.084 119.421 109.292 119.713 110.461L119.941 111.526C120.17 112.592 120.17 114.419 119.789 116.094C119.63 116.752 119.477 117.411 119.332 118.073C119.332 118.301 119.18 118.758 118.799 119.291L118.495 119.976L118.343 120.509C118.114 120.737 117.962 121.194 117.962 121.422C118.038 121.879 118.267 121.879 118.419 121.498L118.571 121.27L118.799 121.118C119.218 120.698 119.65 120.292 120.094 119.9C120.094 119.9 120.246 119.824 120.246 119.671L120.703 119.139L121.083 118.758L121.768 117.692L122.301 116.931L123.138 115.409C124.356 113.353 124.965 109.471 124.889 104.675V103.229C124.737 102.772 124.965 102.087 125.194 102.24C125.963 105.04 126.119 107.975 125.65 110.841L125.574 111.146C125.236 112.38 124.931 113.624 124.661 114.876L123.9 116.398L123.671 116.855L122.986 118.073C122.35 118.883 121.715 119.695 121.083 120.509C120.606 121.118 120.098 121.703 119.561 122.26L119.332 122.564C118.647 123.173 119.408 123.782 120.094 123.249L120.55 122.868L121.388 122.183C122.05 121.59 122.764 121.055 123.519 120.585L124.356 119.824C126.593 117.976 128.366 115.629 129.533 112.973C129.685 112.516 129.913 111.831 130.065 110.537C130.294 108.938 130.294 107.873 130.218 107.111L130.065 105.893L129.913 104.98L129.609 104.066L129.457 103.381L129.38 103.077L129.304 102.848L129.228 102.62L128.924 101.631L128.619 100.869C128.521 100.517 128.367 100.183 128.162 99.8797L127.934 99.4991L127.706 99.1185C127.706 98.9663 126.944 97.9767 126.336 97.2155L125.574 96.302L125.194 95.9214L124.813 95.5408L124.432 95.2363L123.747 94.7796C123.215 94.3229 122.758 94.1706 120.931 93.6378C120.474 93.4855 119.789 93.4094 119.332 93.4855ZM110.502 94.0945L110.426 95.0841C110.421 97.1656 110.37 99.2468 110.274 101.326C109.817 104.447 109.741 105.132 110.045 105.208C110.274 105.208 110.654 104.599 110.654 104.295L110.731 103.914L110.883 103.381C111.033 102.544 111.185 101.706 111.34 100.869C111.644 100.565 111.644 96.4543 111.34 95.2363C111.035 94.1706 111.035 94.0945 110.883 94.0184C110.731 93.9423 110.654 93.9423 110.502 94.0945ZM63.3829 95.7692L62.6217 95.8453L62.0127 95.9975L60.4903 96.5304C59.9575 96.6826 58.9679 97.1394 57.9783 97.7483L56.7603 98.6618L56.3797 98.9663C55.9991 99.1946 55.8469 99.423 55.6185 99.7275L55.0857 100.336C54.3245 101.174 54.2483 101.402 54.3245 102.316C54.428 103.174 54.4789 104.039 54.4767 104.904C55.5129 103.244 56.8564 101.797 58.435 100.641C59.7782 99.7374 61.2379 99.0204 62.774 98.5096C63.459 98.2812 65.5143 98.2051 66.2755 98.3573C66.9606 98.5857 67.6457 99.1185 67.1129 99.1185C66.5039 99.1185 65.5905 100.565 65.8949 101.174L66.0472 101.554C66.2755 102.087 66.8845 102.468 67.4174 102.316H67.7219L67.9502 102.24C68.7114 101.935 68.9398 101.783 69.1682 101.554L69.3965 101.174L69.5488 100.869C70.1578 100.032 69.8533 98.3573 69.0159 97.4439L68.7114 97.0632L68.6353 96.9871L68.3308 96.7588C68.1025 96.5304 67.9502 96.4543 67.4935 96.302L67.0368 96.0737C66.1994 95.7692 64.2964 95.6169 63.3829 95.7692ZM78.3789 106.731C78.1505 107.796 77.2371 108.481 76.0191 108.481L75.1057 108.634L74.2683 108.786C73.8877 108.786 73.2787 109.014 72.8981 109.243L72.5936 109.395L72.4414 109.547L72.213 109.699C71.7563 109.928 72.1369 110.08 73.7355 110.461C75.5488 110.924 77.3289 111.509 79.064 112.211C79.8252 112.592 80.6625 110.765 80.2819 109.623L80.1297 108.558C80.0536 107.264 79.3685 106.274 78.7595 106.274C78.455 106.274 78.455 106.274 78.3789 106.731ZM128.771 108.481L128.391 109.776C128.281 110.559 128.077 111.326 127.782 112.059L127.63 112.592C127.471 112.894 127.319 113.198 127.173 113.506L126.868 114.038L126.183 115.104L125.574 116.094L125.422 116.322L125.27 116.55C125.422 117.54 128.01 114.267 128.543 112.44L128.695 112.059L128.771 111.755L128.848 111.374L129.076 110.613C129.145 109.826 129.221 109.039 129.304 108.253C129.152 108.101 128.924 108.177 128.771 108.481ZM28.8237 108.634C27.2252 108.862 27.149 110.537 28.5953 111.298C29.1282 111.526 29.2804 111.526 30.1939 111.07C30.7267 110.841 30.879 109.852 30.4984 109.395L29.5849 108.71C29.2804 108.558 29.2043 108.558 28.8237 108.634ZM67.2651 110.308C66.1501 110.471 65.0336 110.623 63.9158 110.765L63.459 110.917C62.8518 111.08 62.2645 111.31 61.7083 111.602C60.3742 112.173 59.1202 112.915 57.9783 113.81C56.9126 114.495 56.9126 114.723 57.9022 115.485C58.5111 115.941 58.5111 115.941 58.7395 115.789L58.9679 115.637L59.4246 115.409C61.0993 114.267 63.2307 114.647 64.2203 116.246C64.6009 116.779 64.677 117.54 64.5248 118.453C64.4486 119.139 64.4486 119.215 65.9711 119.519C67.4935 119.824 68.1025 119.747 67.9502 119.443L67.8741 118.834L67.798 118.53L67.7219 118.301L67.4935 117.844L67.3413 117.388C67.3413 117.159 66.5039 116.094 65.5905 115.18C64.8292 114.495 64.9054 114.038 65.6666 114.571L66.1994 114.876C67.2791 115.658 68.1007 116.745 68.5592 117.997L69.0159 119.747L69.3204 121.194L69.3965 122.336C69.3965 125.457 70.0055 126.903 71.4518 127.36C71.7563 127.436 71.9847 127.816 72.1369 128.425L72.2892 129.034C72.4414 129.415 72.3653 130.328 72.213 130.709C71.9847 131.318 72.213 131.47 72.6698 131.166L73.2787 130.785L73.8877 130.405L74.1922 130.176C74.4967 130.176 76.0191 128.349 76.552 127.207C77.0113 126.342 77.2577 125.38 77.271 124.4C77.2842 123.421 77.0638 122.452 76.6281 121.574C76.4453 121.023 76.2161 120.488 75.943 119.976L75.4863 119.367L75.0295 118.682C73.8208 117.194 72.3816 115.909 70.7667 114.876C69.701 114.114 70.7667 114.191 72.0608 114.952L72.5175 115.18L73.3549 115.789L73.8877 116.246L74.6489 116.931L74.8773 117.159C75.0295 117.159 76.3236 118.758 76.6281 119.367L77.2371 120.356C77.4654 120.585 77.6177 120.965 77.6177 121.042L77.7699 121.194L78.1505 121.498L78.5311 121.803L78.9117 121.955C79.8252 122.564 81.3476 122.488 81.9566 121.879C82.7178 121.042 82.4895 120.052 81.2715 118.834C80.2819 117.844 80.8148 117.54 81.8805 118.453C82.0327 118.606 82.2611 118.834 82.4133 118.834C82.8701 119.139 83.3268 119.9 83.4029 120.889L83.6313 121.879L84.0119 122.64C84.2403 123.401 84.6209 123.706 85.0776 123.477L85.5343 123.173C85.7627 123.097 86.0672 122.64 85.9911 122.412L86.0672 122.183C86.1433 121.879 86.1433 120.965 85.9911 120.585L85.8388 120.128L85.6866 119.9L85.5343 119.595L84.6209 118.225L84.2403 117.616L83.0984 116.322L82.185 115.409L80.7387 114.114C76.6793 111.639 72.0196 110.323 67.2651 110.308ZM26.9968 112.668C25.246 113.201 24.8654 113.962 25.6266 115.18L26.0833 115.789C26.6162 116.703 27.149 117.083 27.3013 116.703L27.3774 116.55L27.4535 116.398L27.6058 116.17L27.758 115.941L27.9864 115.561L28.2147 115.104L28.4431 114.191C28.6715 113.506 28.6715 113.506 28.4431 113.201C27.9864 112.44 27.758 112.364 26.9968 112.668ZM121.844 113.353C121.692 113.429 121.311 114.267 121.311 114.571L120.779 115.865L120.703 116.246L120.55 116.779C120.246 117.312 120.626 117.54 121.007 117.083C121.433 116.486 121.742 115.815 121.92 115.104C122.377 114.114 122.301 113.049 121.844 113.353ZM129.457 122.107C128.695 122.336 127.553 124.086 127.934 124.391L128.01 124.772C128.01 125.228 128.924 126.066 129.457 126.066L130.751 125.913C131.131 125.913 131.969 125.304 131.969 125.076L132.121 124.695C132.273 124.391 132.349 123.706 132.273 123.63L132.197 123.325C132.273 123.173 132.273 123.021 132.121 122.945L131.74 122.412C131.436 122.107 131.207 122.031 130.37 121.955L129.457 122.107ZM18.6995 122.792C17.1771 123.554 17.7099 125.533 19.3846 125C19.9936 124.848 20.3742 124.391 20.3742 123.782C20.3742 122.716 19.613 122.26 18.6995 122.792ZM92.4614 126.827C92.4065 127.438 92.3304 128.048 92.233 128.654L92.0808 128.73C91.9285 129.11 90.7106 129.034 90.1016 128.654L89.6449 128.578L89.0359 128.273C88.4991 127.925 87.8847 127.715 87.2472 127.662C86.6098 127.609 85.9691 127.714 85.3821 127.969C85.0776 128.121 84.8492 128.121 84.4686 128.121C84.0119 128.121 83.9358 128.197 83.6313 128.425C82.5513 129.388 81.3158 130.16 79.9774 130.709L79.2923 131.09L78.8356 131.318L78.3789 131.47L77.7699 131.775L77.5416 131.851L76.3236 132.231L75.7146 132.384L74.9534 132.536L74.3444 132.688C74.1161 132.84 72.5175 132.993 71.1473 132.993C68.2547 133.069 67.7219 132.993 67.5696 132.84L67.2651 132.764L65.5143 132.46L64.9054 132.308L64.5248 132.231C64.4486 132.155 64.2203 132.003 63.9158 132.003L63.3829 131.775L63.1546 131.699L62.6217 131.47L62.0889 131.166L61.7844 131.013L60.6425 130.405C60.1217 130.166 59.6353 129.859 59.1962 129.491L58.8156 129.187L58.5873 128.958C58.5111 128.958 58.2067 128.73 57.9022 128.273C57.826 128.121 57.7499 128.121 56.2275 128.121L54.7051 128.197L55.6185 129.11C56.9266 130.454 58.476 131.538 60.1858 132.308C61.4163 132.885 62.6886 133.368 63.9919 133.754C65.6666 134.134 66.58 134.287 68.2547 134.439C69.6249 134.591 73.0504 134.591 74.1161 134.515C76.5092 134.376 78.845 133.727 80.967 132.612L81.1193 132.536L81.7282 132.231C82.2365 131.903 82.744 131.573 83.2507 131.242L83.6313 131.013L84.1641 130.557L85.8388 129.11C86.2194 128.806 86.3717 128.654 86.5239 128.654L88.8837 129.187C94.8973 130.557 94.9734 130.557 95.2018 130.176C95.4301 129.719 95.0495 128.806 94.5928 128.806C94.4406 128.806 93.0704 127.36 92.9181 126.979C92.5375 126.37 92.4614 126.37 92.4614 126.827ZM63.3068 127.207C63.7635 127.969 64.7531 128.045 65.8188 127.512C66.1994 127.36 66.2755 127.36 64.677 127.131L63.3068 126.903C63.0784 126.903 63.0784 126.903 63.3068 127.207Z" fill="#F1F1F1"/>
</g>
</g>
<defs>
<filter id="filter0_d_112_15" x="0.917124" y="19.0386" width="146.85" height="146.935" filterUnits="userSpaceOnUse" color-interpolation-filters="sRGB">
<feFlood flood-opacity="0" result="BackgroundImageFix"/>
<feColorMatrix in="SourceAlpha" type="matrix" values="0 0 0 0 0 0 0 0 0 0 0 0 0 0 0 0 0 0 127 0" result="hardAlpha"/>
<feOffset dy="15.4647"/>
<feGaussianBlur stdDeviation="7.73236"/>
<feComposite in2="hardAlpha" operator="out"/>
<feColorMatrix type="matrix" values="0 0 0 0 0 0 0 0 0 0 0 0 0 0 0 0 0 0 0.5 0"/>
<feBlend mode="normal" in2="BackgroundImageFix" result="effect1_dropShadow_112_15"/>
<feBlend mode="normal" in="SourceGraphic" in2="effect1_dropShadow_112_15" result="shape"/>
</filter>
<clipPath id="clip0_112_15">
<rect x="0.20166" y="0.4646" width="146.915" height="146.915" rx="12.3805" fill="white"/>
</clipPath>
</defs>
</svg>
