<svg width="8" height="8" viewBox="0 0 8 8" fill="none" xmlns="http://www.w3.org/2000/svg">
<path d="M4.12581 7.06672L1.54594 1.5974C1.53047 1.5646 1.5646 1.53047 1.5974 1.54594L7.06672 4.12581C7.10099 4.14197 7.09396 4.19267 7.05658 4.1989L4.63438 4.6026C4.61809 4.60532 4.60532 4.61809 4.6026 4.63438L4.1989 7.05658C4.19267 7.09395 4.14197 7.10099 4.12581 7.06672Z" stroke="#F1F1F1" stroke-width="0.232775"/>
<path fill-rule="evenodd" clip-rule="evenodd" d="M1.54559 1.59706L4.12545 7.06638C4.14162 7.10065 4.19232 7.09362 4.19855 7.05624L4.60225 4.63404C4.6048 4.61871 4.61626 4.6065 4.63118 4.60285L4.62664 4.6036C4.61433 4.60566 4.60178 4.60164 4.59295 4.59281L1.65693 1.65678C1.62671 1.62656 1.66058 1.57739 1.69911 1.59375L1.59704 1.5456C1.56425 1.53013 1.53012 1.56426 1.54559 1.59706Z" fill="#F1F1F1"/>
<path d="M4.12545 7.06638L4.23072 7.01672L4.23072 7.01672L4.12545 7.06638ZM1.54559 1.59706L1.44032 1.64671L1.44032 1.64671L1.54559 1.59706ZM4.19855 7.05624L4.08374 7.03711L4.08374 7.03711L4.19855 7.05624ZM4.60225 4.63404L4.71705 4.65317L4.71705 4.65317L4.60225 4.63404ZM4.63118 4.60285L4.65883 4.7159L4.61205 4.48804L4.63118 4.60285ZM4.62664 4.6036L4.64578 4.71841L4.64578 4.71841L4.62664 4.6036ZM4.59295 4.59281L4.51066 4.67511L4.59295 4.59281ZM1.65693 1.65678L1.73923 1.57449L1.65693 1.65678ZM1.69911 1.59375L1.65364 1.70088L1.74877 1.48849L1.69911 1.59375ZM1.59704 1.5456L1.54739 1.65087L1.54739 1.65087L1.59704 1.5456ZM4.23072 7.01672L1.65085 1.5474L1.44032 1.64671L4.02019 7.11603L4.23072 7.01672ZM4.08374 7.03711C4.09627 6.96195 4.19822 6.94782 4.23072 7.01672L4.02019 7.11603C4.08502 7.25348 4.28837 7.22528 4.31335 7.07537L4.08374 7.03711ZM4.48744 4.61491L4.08374 7.03711L4.31335 7.07537L4.71705 4.65317L4.48744 4.61491ZM4.60354 4.48979C4.54365 4.50443 4.4977 4.55339 4.48744 4.61491L4.71705 4.65317C4.71191 4.68402 4.68887 4.70856 4.65883 4.7159L4.60354 4.48979ZM4.61205 4.48804L4.60751 4.4888L4.64578 4.71841L4.65032 4.71765L4.61205 4.48804ZM4.60751 4.4888C4.63227 4.48467 4.6575 4.49276 4.67525 4.51051L4.51066 4.67511C4.54606 4.71051 4.59639 4.72664 4.64578 4.71841L4.60751 4.4888ZM4.67525 4.51051L1.73923 1.57449L1.57463 1.73908L4.51066 4.67511L4.67525 4.51051ZM1.73923 1.57449C1.80077 1.63603 1.73115 1.73379 1.65364 1.70088L1.74459 1.48661C1.59001 1.421 1.45264 1.61709 1.57463 1.73908L1.73923 1.57449ZM1.54739 1.65087L1.64946 1.69901L1.74877 1.48849L1.64669 1.44034L1.54739 1.65087ZM1.65085 1.5474C1.68196 1.61335 1.61333 1.68197 1.54739 1.65087L1.6467 1.44034C1.51516 1.37829 1.37828 1.51518 1.44032 1.64671L1.65085 1.5474Z" fill="#F1F1F1"/>
</svg>
